<?xml version="1.0" encoding="utf-8"?>
<!-- Generator: Adobe Illustrator 24.0.3, SVG Export Plug-In . SVG Version: 6.00 Build 0)  -->
<svg version="1.1" id="Layer_1" focusable="false" xmlns="http://www.w3.org/2000/svg" xmlns:xlink="http://www.w3.org/1999/xlink"
	 x="0px" y="0px" viewBox="0 0 576 512" style="enable-background:new 0 0 576 512;" xml:space="preserve">
<style type="text/css">
	.st0{fill:#FFFFFF;}
</style>
<path class="st0" d="M218.9,336.4c34.9-34.9,44.2-59.7,54.1-86c10.6-28.3,21.6-57.5,61.4-97.3s69.1-50.8,97.4-61.4
	c23.9-9,46.6-17.7,76.8-45.4L470.8,8.9C459.9-1.8,442.9-3,430.6,6.1c-13.6,10.1-25.1,14.4-41,20.3C247,79.5,209.3,191.3,200.6,214.1
	c-29.8,78.8-89.6,94.7-98.7,98.1c-24.9,9.3-54.7,20.4-91.1,50.4C-3,374-3.6,395,9.1,407.6l35.8,35.5c35.2-32.6,62.2-43,88.2-52.7
	C159.3,380.6,184.1,371.3,218.9,336.4z M566.9,104.4l-35.8-35.5c-35.2,32.6-62.2,43-88.2,52.8c-26.3,9.8-51.1,19.2-86,54
	s-44.2,59.7-54,86c-10.6,28.3-21.6,57.5-61.4,97.3s-69,50.7-97.3,61.3c-23.9,9-46.6,17.7-76.7,45.3l37.7,37.4
	c10.9,10.7,27.9,11.9,40.2,2.8c13.6-10.1,25.1-14.3,40.9-20.2c142.2-53,180-164.1,188.9-187.7c29.7-78.8,89.5-94.7,98.7-98.1
	c24.9-9.3,54.7-20.4,91.1-50.4C579,138.1,579.6,117,566.9,104.4L566.9,104.4z"/>
</svg>
