<?xml version="1.0" encoding="utf-8"?>
<!-- Generator: Adobe Illustrator 24.0.3, SVG Export Plug-In . SVG Version: 6.00 Build 0)  -->
<svg version="1.1" id="Layer_1" focusable="false" xmlns="http://www.w3.org/2000/svg" xmlns:xlink="http://www.w3.org/1999/xlink"
	 x="0px" y="0px" viewBox="0 0 512 512" style="enable-background:new 0 0 512 512;" xml:space="preserve">
<style type="text/css">
	.st0{fill:#FFFFFF;}
</style>
<path class="st0" d="M497.5,92C469.6,33.1,411.8,0,352.4,0c-27.9,0-56.2,7.3-81.8,22.6L243.1,39c-15.2,9.1-20.1,28.7-11,43.9
	l32.8,54.9c6,10,16.6,15.6,27.5,15.6c5.6,0,11.2-1.5,16.4-4.5l27.5-16.4c5.1-3.1,10.8-4.5,16.4-4.5c10.9,0,21.5,5.6,27.5,15.6
	c9.1,15.1,4.1,34.8-11,43.9L15.6,397.6c-15.2,9.1-20.1,28.7-11,43.9l32.8,54.9c6,10,16.6,15.6,27.5,15.6c5.6,0,11.2-1.5,16.4-4.5
	L428.6,301C500.3,258.1,533.2,167.5,497.5,92z M319.8,105l-2.5,1.5L296.8,45c9.7-4.7,19.8-8.1,30.3-10.2l20.6,61.8
	C337.9,97.4,328.3,99.9,319.8,105z M145.9,431.8l-60.5-38.5l30.8-18.3l60.5,38.5L145.9,431.8z M253.4,367.9l-60.5-38.5l30.8-18.3
	l60.5,38.5L253.4,367.9L253.4,367.9z M364.3,302l-60.5-38.5l30.8-18.3l60.5,38.5L364.3,302z M384.7,104.7l46-46
	c8.4,6.5,16,14.1,22.6,22.6L407.6,127C401.9,117.7,393.9,110.1,384.7,104.7L384.7,104.7z M466.8,212.5l-59.5-19.8
	c3.2-5.3,5.8-10.9,7.4-17.1c1.1-4.5,1.7-9.1,1.8-13.6l60.4,20.1C474.8,192.5,471.4,202.7,466.8,212.5L466.8,212.5z"/>
</svg>
