<?xml version="1.0" encoding="utf-8"?>
<!-- Generator: Adobe Illustrator 24.0.3, SVG Export Plug-In . SVG Version: 6.00 Build 0)  -->
<svg version="1.1" id="Layer_1" focusable="false" xmlns="http://www.w3.org/2000/svg" xmlns:xlink="http://www.w3.org/1999/xlink"
	 x="0px" y="0px" viewBox="0 0 128 128" style="enable-background:new 0 0 128 128;" xml:space="preserve">
<style type="text/css">
	.st0{opacity:0.4;fill:#FFF44F;}
</style>
<path class="st0" d="M85.8-21.8c-2.2-2.2-5.1-2.7-7-1.6c-5.5,3.2-17-5-30.1,8.1s-4.9,24.6-8.1,30.1c-1.1,1.9-0.6,4.9,1.6,7
	c2.2,2.2,5.1,2.7,7,1.6c5.5-3.2,17,5,30.1-8.1s4.9-24.6,8.1-30.1C88.6-16.7,88-19.7,85.8-21.8z M62.9-15C57.4-13.7,50.3-6.6,49-1.1
	C48.8-0.5,48.2,0,47.5,0c-0.1,0-0.2,0-0.4,0c-0.8-0.2-1.3-1-1.1-1.8c1.6-6.5,9.5-14.5,16.1-16.1c0.8-0.2,1.6,0.3,1.8,1.1
	S63.7-15.2,62.9-15z"/>
<path class="st0" d="M85.8,106.2c-2.2-2.2-5.1-2.7-7-1.6c-5.5,3.2-17-5-30.1,8.1s-4.9,24.6-8.1,30.1c-1.1,1.9-0.6,4.9,1.6,7
	c2.2,2.2,5.1,2.7,7,1.6c5.5-3.2,17,5,30.1-8.1c13.1-13.1,4.9-24.6,8.1-30.1C88.6,111.3,88,108.3,85.8,106.2z M62.9,113
	c-5.5,1.4-12.5,8.5-13.9,13.9c-0.2,0.7-0.8,1.1-1.5,1.1c-0.1,0-0.2,0-0.4,0c-0.8-0.2-1.3-1-1.1-1.8c1.6-6.5,9.5-14.5,16.1-16.1
	c0.8-0.2,1.6,0.3,1.8,1.1S63.7,112.8,62.9,113z"/>
<path class="st0" d="M21.8,42.2c-2.2-2.2-5.1-2.7-7-1.6c-5.5,3.2-17-5-30.1,8.1s-4.9,24.6-8.1,30.1c-1.1,1.9-0.6,4.9,1.6,7
	c2.2,2.2,5.1,2.7,7,1.6c5.5-3.2,17,5,30.1-8.1s4.9-24.6,8.1-30.1C24.6,47.3,24,44.3,21.8,42.2z M-1.1,49
	c-5.5,1.4-12.5,8.5-13.9,13.9c-0.2,0.7-0.8,1.1-1.5,1.1c-0.1,0-0.2,0-0.4,0c-0.8-0.2-1.3-1-1.1-1.8c1.6-6.5,9.5-14.5,16.1-16.1
	c0.8-0.2,1.6,0.3,1.8,1.1C0.2,47.9-0.3,48.8-1.1,49z"/>
<path class="st0" d="M149.8,42.2c-2.2-2.2-5.1-2.7-7-1.6c-5.5,3.2-17-5-30.1,8.1s-4.9,24.6-8.1,30.1c-1.1,1.9-0.6,4.9,1.6,7
	c2.2,2.2,5.1,2.7,7,1.6c5.5-3.2,17,5,30.1-8.1s4.9-24.6,8.1-30.1C152.6,47.3,152,44.3,149.8,42.2z M126.9,49
	c-5.5,1.4-12.5,8.5-13.9,13.9c-0.2,0.7-0.8,1.1-1.5,1.1c-0.1,0-0.2,0-0.4,0c-0.8-0.2-1.3-1-1.1-1.8c1.6-6.5,9.5-14.5,16.1-16.1
	c0.8-0.2,1.6,0.3,1.8,1.1C128.2,47.9,127.7,48.8,126.9,49z"/>
</svg>
