<?xml version="1.0" encoding="utf-8"?>
<!-- Generator: Adobe Illustrator 24.0.3, SVG Export Plug-In . SVG Version: 6.00 Build 0)  -->
<svg version="1.1" id="Layer_1" focusable="false" xmlns="http://www.w3.org/2000/svg" xmlns:xlink="http://www.w3.org/1999/xlink"
	 x="0px" y="0px" viewBox="0 0 512 512" style="enable-background:new 0 0 512 512;" xml:space="preserve">
<style type="text/css">
	.st0{fill:#FFF44F;}
</style>
<path class="st0" d="M489,23C465.9-0.1,434.6-5.9,413.9,6.1C355,40.4,232.7-46.9,92.9,92.9S40.4,355,6.1,413.9
	c-12.1,20.7-6.3,52,16.8,75.1c23.1,23.1,54.4,28.9,75.1,16.8c58.9-34.3,181.2,53.1,321.1-86.7S471.6,157,505.9,98.1
	C517.9,77.4,512.1,46.1,489,23z M243.9,95.5c-58.2,14.5-133.8,90.2-148.4,148.4C93.7,251.2,87.2,256,80,256c-1.3,0-2.6-0.2-3.9-0.5
	c-8.6-2.1-13.8-10.8-11.6-19.4C81.9,166.4,166.3,81.9,236.1,64.5c8.6-2.1,17.3,3.1,19.4,11.6S252.5,93.4,243.9,95.5z"/>
</svg>
