<?xml version="1.0" encoding="utf-8"?>
<!-- Generator: Adobe Illustrator 24.0.3, SVG Export Plug-In . SVG Version: 6.00 Build 0)  -->
<svg version="1.1" id="Layer_1" focusable="false" xmlns="http://www.w3.org/2000/svg" xmlns:xlink="http://www.w3.org/1999/xlink"
	 x="0px" y="0px" viewBox="0 0 512 512" style="enable-background:new 0 0 512 512;" xml:space="preserve">
<style type="text/css">
	.st0{fill:#FFFFFF;}
</style>
<path class="st0" d="M330.7,263.1v-89.7l-52.8-24.2C219.4,218.8,197.6,400,56,400c-30.9,0-56,25.1-56,56s25.1,56,56,56
	c212.6,0,370.6-122.9,419.2-210.3l-37-38.5H330.7z M461.8,134.8C493.9,74.9,477.2,26.5,458.6,3c-2.8-3.4-7.8-4-11.2-1.2
	c-0.2,0.2-0.5,0.4-0.7,0.6l-22.9,23c-2.7,2.8-3.1,7-0.9,10.2c6.9,10.4,17,35.1-1.4,72.3c-18-7.9-37.5-12-57.2-12
	c-28,0-54,8.5-76.3,22.6l74.7,34.3v78.2h89.1l54.7,56.9c3.3-12.6,5.6-25.6,5.6-39.3C512,205.3,493.8,164,461.8,134.8z"/>
</svg>
